<svg xmlns="http://www.w3.org/2000/svg" width="57" height="57" viewBox="0 0 57 57" fill="none">
<path fill-rule="evenodd" clip-rule="evenodd" d="M28.5 57C44.2401 57 57 44.2401 57 28.5C57 12.7599 44.2401 0 28.5 0C12.7599 0 0 12.7599 0 28.5C0 44.2401 12.7599 57 28.5 57ZM36.7385 29.9642C37.6035 29.9642 38.4196 30.3513 39.0962 31.0753L42.9258 35.0251C43.6303 35.7419 44 36.595 44 37.4839C44 38.3656 43.6373 39.2258 42.9467 39.9642C42.6468 40.2867 42.3398 40.595 42.0399 40.8889C42.0073 40.9213 41.9749 40.9535 41.9426 40.9856C41.5387 41.3869 41.155 41.7682 40.8192 42.1864C40.8157 42.1936 40.8104 42.1989 40.8052 42.2043C40.8 42.2097 40.7948 42.2151 40.7913 42.2222C39.731 43.405 38.3777 44 36.7664 44C36.6269 44 36.4734 43.9928 36.3269 43.9857C33.9343 43.828 31.7928 42.9032 30.1885 42.1219C25.9892 40.0358 22.3131 37.0753 19.2578 33.3262C16.7397 30.2151 15.0516 27.3118 13.9216 24.1792C13.4612 22.9032 12.8613 20.9534 13.0287 18.8602C13.1403 17.5627 13.6495 16.4444 14.5424 15.5269L16.9141 13.0681L16.928 13.0538C17.6256 12.3656 18.4487 12 19.2997 12C20.1507 12 20.9599 12.3656 21.6365 13.0538C22.0899 13.4839 22.5294 13.9427 22.9479 14.3871C23.1571 14.6165 23.3803 14.8458 23.5965 15.068L23.5966 15.0681L25.5009 17.0251C26.9658 18.5305 26.9658 20.4803 25.5009 21.9857C25.4033 22.086 25.3056 22.1882 25.2079 22.2904C25.1103 22.3925 25.0126 22.4946 24.915 22.595C24.8652 22.6468 24.8153 22.6989 24.7652 22.7511C24.2961 23.2403 23.8135 23.7436 23.2967 24.2294C23.7222 25.1971 24.3081 26.1505 25.1801 27.2832C26.9797 29.5556 28.8562 31.3118 30.9209 32.6595C31.1232 32.7885 31.3603 32.9104 31.6114 33.0394L31.6115 33.0394C31.6706 33.071 31.7305 33.1026 31.791 33.1345C31.9089 33.1966 32.0287 33.2598 32.1486 33.3262L34.3529 31.0681C35.0574 30.3441 35.8805 29.9642 36.7385 29.9642Z" fill="#0056FF"/>
</svg>