<svg xmlns="http://www.w3.org/2000/svg" xmlns:xlink="http://www.w3.org/1999/xlink" width="500" zoomAndPan="magnify" viewBox="0 0 375 374.999991" height="500" preserveAspectRatio="xMidYMid meet" version="1.0"><defs><g/><clipPath id="fc9fb4e5e6"><path d="M 47.421875 198.730469 L 312 198.730469 L 312 259.824219 L 47.421875 259.824219 Z M 47.421875 198.730469 " clip-rule="nonzero"/></clipPath><clipPath id="855fcebfea"><path d="M 60.171875 198.730469 L 299.179688 198.730469 C 302.558594 198.730469 305.800781 200.074219 308.195312 202.464844 C 310.585938 204.855469 311.929688 208.097656 311.929688 211.480469 L 311.929688 247.074219 C 311.929688 250.453125 310.585938 253.695312 308.195312 256.089844 C 305.800781 258.480469 302.558594 259.824219 299.179688 259.824219 L 60.171875 259.824219 C 56.789062 259.824219 53.546875 258.480469 51.15625 256.089844 C 48.765625 253.695312 47.421875 250.453125 47.421875 247.074219 L 47.421875 211.480469 C 47.421875 208.097656 48.765625 204.855469 51.15625 202.464844 C 53.546875 200.074219 56.789062 198.730469 60.171875 198.730469 Z M 60.171875 198.730469 " clip-rule="nonzero"/></clipPath><clipPath id="2089f2ef3d"><path d="M 41 161.207031 L 106.410156 161.207031 L 106.410156 250.457031 L 41 250.457031 Z M 41 161.207031 " clip-rule="nonzero"/></clipPath></defs><g clip-path="url(#fc9fb4e5e6)"><g clip-path="url(#855fcebfea)"><path fill="#5271ff" d="M 47.421875 198.730469 L 311.839844 198.730469 L 311.839844 259.824219 L 47.421875 259.824219 Z M 47.421875 198.730469 " fill-opacity="1" fill-rule="nonzero"/></g></g><g clip-path="url(#2089f2ef3d)"><path fill="#000000" d="M 106.074219 198.789062 L 104.5625 185.433594 C 104.292969 183.09375 102.304688 181.3125 99.945312 181.3125 L 92.425781 181.3125 L 92.425781 177.503906 C 92.425781 168.558594 85.160156 161.289062 76.214844 161.289062 C 67.269531 161.289062 60 168.558594 60 177.503906 L 60 181.3125 L 52.484375 181.3125 C 50.125 181.3125 48.136719 183.09375 47.867188 185.433594 L 41.074219 245.046875 C 40.742188 247.90625 42.980469 250.390625 45.859375 250.390625 L 48.382812 250.390625 C 58.820312 205.601562 92.261719 199.390625 106.074219 198.789062 Z M 90.355469 186.179688 C 91.496094 186.179688 92.425781 187.109375 92.425781 188.25 C 92.425781 189.386719 91.496094 190.320312 90.355469 190.320312 C 89.21875 190.320312 88.285156 189.386719 88.285156 188.25 C 88.285156 187.109375 89.21875 186.179688 90.355469 186.179688 Z M 64.140625 177.523438 C 64.140625 170.875 69.546875 165.453125 76.214844 165.453125 C 82.882812 165.453125 88.285156 170.875 88.285156 177.523438 L 88.285156 181.332031 L 64.140625 181.332031 Z M 62.070312 186.179688 C 63.210938 186.179688 64.140625 187.109375 64.140625 188.25 C 64.140625 189.386719 63.210938 190.320312 62.070312 190.320312 C 60.933594 190.320312 60 189.386719 60 188.25 C 60 187.109375 60.933594 186.179688 62.070312 186.179688 Z M 62.070312 186.179688 " fill-opacity="1" fill-rule="nonzero"/></g><g fill="#ffffff" fill-opacity="1"><g transform="translate(73.525972, 249.383814)"><g><path d="M 6.28125 -10.78125 C 7.269531 -10.78125 7.984375 -10.566406 8.421875 -10.140625 C 10.035156 -8.515625 11.8125 -7.394531 13.75 -6.78125 C 15.6875 -6.175781 17.78125 -5.875 20.03125 -5.875 C 22.28125 -5.875 24.066406 -6.351562 25.390625 -7.3125 C 26.710938 -8.28125 27.375 -9.535156 27.375 -11.078125 L 27.375 -11.203125 C 27.375 -11.910156 27.242188 -12.5625 26.984375 -13.15625 C 26.734375 -13.75 26.257812 -14.300781 25.5625 -14.8125 C 24.875 -15.332031 23.925781 -15.804688 22.71875 -16.234375 C 21.519531 -16.671875 19.953125 -17.109375 18.015625 -17.546875 C 15.804688 -18.054688 13.84375 -18.632812 12.125 -19.28125 C 10.40625 -19.9375 8.960938 -20.738281 7.796875 -21.6875 C 6.628906 -22.632812 5.738281 -23.769531 5.125 -25.09375 C 4.507812 -26.414062 4.203125 -28.023438 4.203125 -29.921875 L 4.203125 -30.046875 C 4.203125 -31.828125 4.554688 -33.457031 5.265625 -34.9375 C 5.984375 -36.414062 6.960938 -37.675781 8.203125 -38.71875 C 9.453125 -39.769531 10.945312 -40.59375 12.6875 -41.1875 C 14.425781 -41.78125 16.320312 -42.078125 18.375 -42.078125 C 20.976562 -42.078125 23.347656 -41.75 25.484375 -41.09375 C 27.617188 -40.445312 29.632812 -39.488281 31.53125 -38.21875 C 31.96875 -37.988281 32.34375 -37.625 32.65625 -37.125 C 32.96875 -36.632812 33.125 -36.035156 33.125 -35.328125 C 33.125 -34.378906 32.785156 -33.578125 32.109375 -32.921875 C 31.441406 -32.265625 30.632812 -31.9375 29.6875 -31.9375 C 29.019531 -31.9375 28.390625 -32.117188 27.796875 -32.484375 C 26.097656 -33.503906 24.5 -34.28125 23 -34.8125 C 21.5 -35.351562 19.914062 -35.625 18.25 -35.625 C 16.113281 -35.625 14.453125 -35.148438 13.265625 -34.203125 C 12.085938 -33.253906 11.5 -32.085938 11.5 -30.703125 L 11.5 -30.578125 C 11.5 -29.785156 11.632812 -29.082031 11.90625 -28.46875 C 12.1875 -27.863281 12.703125 -27.3125 13.453125 -26.8125 C 14.203125 -26.320312 15.207031 -25.859375 16.46875 -25.421875 C 17.738281 -24.984375 19.378906 -24.53125 21.390625 -24.0625 C 23.566406 -23.507812 25.484375 -22.882812 27.140625 -22.1875 C 28.796875 -21.5 30.175781 -20.679688 31.28125 -19.734375 C 32.394531 -18.785156 33.238281 -17.675781 33.8125 -16.40625 C 34.382812 -15.144531 34.671875 -13.644531 34.671875 -11.90625 L 34.671875 -11.796875 C 34.671875 -9.859375 34.304688 -8.117188 33.578125 -6.578125 C 32.847656 -5.035156 31.828125 -3.726562 30.515625 -2.65625 C 29.210938 -1.59375 27.648438 -0.785156 25.828125 -0.234375 C 24.015625 0.316406 22.023438 0.59375 19.859375 0.59375 C 16.972656 0.59375 14.242188 0.171875 11.671875 -0.671875 C 9.109375 -1.523438 6.640625 -2.84375 4.265625 -4.625 C 3.316406 -5.332031 2.84375 -6.257812 2.84375 -7.40625 C 2.84375 -8.351562 3.175781 -9.148438 3.84375 -9.796875 C 4.519531 -10.453125 5.332031 -10.78125 6.28125 -10.78125 Z M 6.28125 -10.78125 "/></g></g></g><g fill="#ffffff" fill-opacity="1"><g transform="translate(105.291578, 249.383814)"><g><path d="M 8.0625 -43.5625 C 9.082031 -43.5625 9.9375 -43.210938 10.625 -42.515625 C 11.320312 -41.828125 11.671875 -40.988281 11.671875 -40 L 11.671875 -26.484375 C 12.703125 -27.953125 13.976562 -29.226562 15.5 -30.3125 C 17.019531 -31.394531 19.003906 -31.9375 21.453125 -31.9375 C 25.046875 -31.9375 27.800781 -30.867188 29.71875 -28.734375 C 31.632812 -26.609375 32.59375 -23.6875 32.59375 -19.96875 L 32.59375 -3.265625 C 32.59375 -2.234375 32.253906 -1.378906 31.578125 -0.703125 C 30.910156 -0.0351562 30.066406 0.296875 29.046875 0.296875 C 28.015625 0.296875 27.148438 -0.0351562 26.453125 -0.703125 C 25.765625 -1.378906 25.421875 -2.234375 25.421875 -3.265625 L 25.421875 -17.78125 C 25.421875 -20.269531 24.835938 -22.164062 23.671875 -23.46875 C 22.503906 -24.769531 20.859375 -25.421875 18.734375 -25.421875 C 16.597656 -25.421875 14.882812 -24.75 13.59375 -23.40625 C 12.3125 -22.0625 11.671875 -20.144531 11.671875 -17.65625 L 11.671875 -3.265625 C 11.671875 -2.234375 11.320312 -1.378906 10.625 -0.703125 C 9.9375 -0.0351562 9.082031 0.296875 8.0625 0.296875 C 7.070312 0.296875 6.226562 -0.0351562 5.53125 -0.703125 C 4.84375 -1.378906 4.5 -2.234375 4.5 -3.265625 L 4.5 -40 C 4.5 -40.988281 4.832031 -41.828125 5.5 -42.515625 C 6.175781 -43.210938 7.03125 -43.5625 8.0625 -43.5625 Z M 8.0625 -43.5625 "/></g></g></g><g fill="#ffffff" fill-opacity="1"><g transform="translate(135.871858, 249.383814)"><g><path d="M 19.5 -31.9375 C 21.90625 -31.9375 24.125 -31.507812 26.15625 -30.65625 C 28.195312 -29.8125 29.957031 -28.648438 31.4375 -27.171875 C 32.914062 -25.691406 34.070312 -23.972656 34.90625 -22.015625 C 35.738281 -20.054688 36.15625 -17.953125 36.15625 -15.703125 L 36.15625 -15.59375 C 36.15625 -13.375 35.726562 -11.273438 34.875 -9.296875 C 34.03125 -7.328125 32.863281 -5.597656 31.375 -4.109375 C 29.894531 -2.628906 28.128906 -1.453125 26.078125 -0.578125 C 24.023438 0.285156 21.789062 0.71875 19.375 0.71875 C 17.007812 0.71875 14.804688 0.289062 12.765625 -0.5625 C 10.734375 -1.414062 8.976562 -2.570312 7.5 -4.03125 C 6.019531 -5.488281 4.863281 -7.207031 4.03125 -9.1875 C 3.195312 -11.164062 2.78125 -13.257812 2.78125 -15.46875 L 2.78125 -15.59375 C 2.78125 -17.84375 3.203125 -19.953125 4.046875 -21.921875 C 4.898438 -23.898438 6.066406 -25.628906 7.546875 -27.109375 C 9.035156 -28.597656 10.796875 -29.773438 12.828125 -30.640625 C 14.867188 -31.503906 17.09375 -31.9375 19.5 -31.9375 Z M 19.5 -5.578125 C 20.957031 -5.578125 22.269531 -5.84375 23.4375 -6.375 C 24.601562 -6.90625 25.597656 -7.613281 26.421875 -8.5 C 27.253906 -9.394531 27.890625 -10.441406 28.328125 -11.640625 C 28.765625 -12.847656 28.984375 -14.125 28.984375 -15.46875 L 28.984375 -15.59375 C 28.984375 -16.96875 28.742188 -18.265625 28.265625 -19.484375 C 27.796875 -20.710938 27.132812 -21.78125 26.28125 -22.6875 C 25.4375 -23.601562 24.429688 -24.328125 23.265625 -24.859375 C 22.097656 -25.390625 20.800781 -25.65625 19.375 -25.65625 C 17.957031 -25.65625 16.664062 -25.390625 15.5 -24.859375 C 14.332031 -24.328125 13.332031 -23.613281 12.5 -22.71875 C 11.675781 -21.832031 11.046875 -20.785156 10.609375 -19.578125 C 10.171875 -18.378906 9.953125 -17.085938 9.953125 -15.703125 L 9.953125 -15.59375 C 9.953125 -14.25 10.1875 -12.960938 10.65625 -11.734375 C 11.132812 -10.503906 11.796875 -9.4375 12.640625 -8.53125 C 13.492188 -7.625 14.503906 -6.90625 15.671875 -6.375 C 16.835938 -5.84375 18.113281 -5.578125 19.5 -5.578125 Z M 19.5 -5.578125 "/></g></g></g><g fill="#ffffff" fill-opacity="1"><g transform="translate(168.644987, 249.383814)"><g><path d="M 8.0625 -31.640625 C 9.082031 -31.640625 9.9375 -31.296875 10.625 -30.609375 C 11.320312 -29.921875 11.671875 -29.0625 11.671875 -28.03125 L 11.671875 -26.078125 C 12.816406 -27.691406 14.238281 -29.070312 15.9375 -30.21875 C 17.632812 -31.363281 19.769531 -31.9375 22.34375 -31.9375 C 24.195312 -31.9375 25.992188 -31.582031 27.734375 -30.875 C 29.472656 -30.164062 31.015625 -29.117188 32.359375 -27.734375 C 33.703125 -26.347656 34.785156 -24.644531 35.609375 -22.625 C 36.441406 -20.613281 36.859375 -18.304688 36.859375 -15.703125 L 36.859375 -15.59375 C 36.859375 -12.976562 36.453125 -10.660156 35.640625 -8.640625 C 34.835938 -6.628906 33.753906 -4.929688 32.390625 -3.546875 C 31.023438 -2.171875 29.472656 -1.125 27.734375 -0.40625 C 25.992188 0.300781 24.195312 0.65625 22.34375 0.65625 C 19.738281 0.65625 17.582031 0.101562 15.875 -1 C 14.175781 -2.113281 12.773438 -3.398438 11.671875 -4.859375 L 11.671875 6.21875 C 11.671875 7.25 11.320312 8.097656 10.625 8.765625 C 9.9375 9.441406 9.082031 9.78125 8.0625 9.78125 C 7.070312 9.78125 6.226562 9.441406 5.53125 8.765625 C 4.84375 8.097656 4.5 7.25 4.5 6.21875 L 4.5 -28.03125 C 4.5 -29.0625 4.832031 -29.921875 5.5 -30.609375 C 6.175781 -31.296875 7.03125 -31.640625 8.0625 -31.640625 Z M 11.5 -15.703125 L 11.5 -15.59375 C 11.5 -14.082031 11.742188 -12.710938 12.234375 -11.484375 C 12.734375 -10.265625 13.394531 -9.210938 14.21875 -8.328125 C 15.050781 -7.441406 16.019531 -6.757812 17.125 -6.28125 C 18.226562 -5.8125 19.394531 -5.578125 20.625 -5.578125 C 21.851562 -5.578125 23.007812 -5.8125 24.09375 -6.28125 C 25.175781 -6.757812 26.125 -7.421875 26.9375 -8.265625 C 27.75 -9.117188 28.390625 -10.164062 28.859375 -11.40625 C 29.335938 -12.65625 29.578125 -14.050781 29.578125 -15.59375 L 29.578125 -15.703125 C 29.578125 -17.203125 29.335938 -18.570312 28.859375 -19.8125 C 28.390625 -21.0625 27.75 -22.117188 26.9375 -22.984375 C 26.125 -23.859375 25.175781 -24.53125 24.09375 -25 C 23.007812 -25.476562 21.851562 -25.71875 20.625 -25.71875 C 19.394531 -25.71875 18.226562 -25.476562 17.125 -25 C 16.019531 -24.53125 15.050781 -23.847656 14.21875 -22.953125 C 13.394531 -22.066406 12.734375 -21.007812 12.234375 -19.78125 C 11.742188 -18.5625 11.5 -17.203125 11.5 -15.703125 Z M 11.5 -15.703125 "/></g></g></g><g fill="#ffffff" fill-opacity="1"><g transform="translate(202.247839, 249.383814)"><g><path d="M 5.328125 -38.171875 C 5.328125 -39.191406 5.679688 -40.046875 6.390625 -40.734375 C 7.109375 -41.429688 7.984375 -41.78125 9.015625 -41.78125 C 10.035156 -41.78125 10.890625 -41.429688 11.578125 -40.734375 C 12.273438 -40.046875 12.625 -39.191406 12.625 -38.171875 L 12.625 -6.640625 L 31.40625 -6.640625 C 32.320312 -6.640625 33.101562 -6.3125 33.75 -5.65625 C 34.40625 -5.007812 34.734375 -4.226562 34.734375 -3.3125 C 34.734375 -2.40625 34.40625 -1.625 33.75 -0.96875 C 33.101562 -0.320312 32.320312 0 31.40625 0 L 9.015625 0 C 7.984375 0 7.109375 -0.351562 6.390625 -1.0625 C 5.679688 -1.78125 5.328125 -2.648438 5.328125 -3.671875 Z M 5.328125 -38.171875 "/></g></g></g><g fill="#ffffff" fill-opacity="1"><g transform="translate(232.768862, 249.383814)"><g><path d="M 4.921875 -28.03125 C 4.921875 -29.0625 5.253906 -29.921875 5.921875 -30.609375 C 6.597656 -31.296875 7.445312 -31.640625 8.46875 -31.640625 C 9.5 -31.640625 10.359375 -31.296875 11.046875 -30.609375 C 11.742188 -29.921875 12.09375 -29.0625 12.09375 -28.03125 L 12.09375 -3.265625 C 12.09375 -2.234375 11.742188 -1.378906 11.046875 -0.703125 C 10.359375 -0.0351562 9.5 0.296875 8.46875 0.296875 C 7.488281 0.296875 6.648438 -0.0351562 5.953125 -0.703125 C 5.265625 -1.378906 4.921875 -2.234375 4.921875 -3.265625 Z M 8.46875 -43.203125 C 9.613281 -43.203125 10.582031 -42.882812 11.375 -42.25 C 12.164062 -41.625 12.5625 -40.773438 12.5625 -39.703125 L 12.5625 -39.359375 C 12.5625 -38.285156 12.164062 -37.421875 11.375 -36.765625 C 10.582031 -36.117188 9.613281 -35.796875 8.46875 -35.796875 C 7.320312 -35.796875 6.351562 -36.117188 5.5625 -36.765625 C 4.78125 -37.421875 4.390625 -38.285156 4.390625 -39.359375 L 4.390625 -39.703125 C 4.390625 -40.773438 4.78125 -41.625 5.5625 -42.25 C 6.351562 -42.882812 7.320312 -43.203125 8.46875 -43.203125 Z M 8.46875 -43.203125 "/></g></g></g><g fill="#ffffff" fill-opacity="1"><g transform="translate(243.554235, 249.383814)"><g><path d="M 8.0625 -31.640625 C 9.082031 -31.640625 9.9375 -31.296875 10.625 -30.609375 C 11.320312 -29.921875 11.671875 -29.0625 11.671875 -28.03125 L 11.671875 -26.484375 C 12.703125 -27.953125 13.976562 -29.226562 15.5 -30.3125 C 17.019531 -31.394531 19.003906 -31.9375 21.453125 -31.9375 C 25.046875 -31.9375 27.800781 -30.867188 29.71875 -28.734375 C 31.632812 -26.609375 32.59375 -23.6875 32.59375 -19.96875 L 32.59375 -3.265625 C 32.59375 -2.234375 32.253906 -1.378906 31.578125 -0.703125 C 30.910156 -0.0351562 30.066406 0.296875 29.046875 0.296875 C 28.015625 0.296875 27.148438 -0.0351562 26.453125 -0.703125 C 25.765625 -1.378906 25.421875 -2.234375 25.421875 -3.265625 L 25.421875 -17.78125 C 25.421875 -20.269531 24.835938 -22.164062 23.671875 -23.46875 C 22.503906 -24.769531 20.859375 -25.421875 18.734375 -25.421875 C 16.597656 -25.421875 14.882812 -24.75 13.59375 -23.40625 C 12.3125 -22.0625 11.671875 -20.144531 11.671875 -17.65625 L 11.671875 -3.265625 C 11.671875 -2.234375 11.320312 -1.378906 10.625 -0.703125 C 9.9375 -0.0351562 9.082031 0.296875 8.0625 0.296875 C 7.070312 0.296875 6.226562 -0.0351562 5.53125 -0.703125 C 4.84375 -1.378906 4.5 -2.234375 4.5 -3.265625 L 4.5 -28.03125 C 4.5 -29.0625 4.832031 -29.921875 5.5 -30.609375 C 6.175781 -31.296875 7.03125 -31.640625 8.0625 -31.640625 Z M 8.0625 -31.640625 "/></g></g></g><g fill="#ffffff" fill-opacity="1"><g transform="translate(274.134515, 249.383814)"><g><path d="M 2.78125 -15.640625 C 2.78125 -17.898438 3.15625 -20.015625 3.90625 -21.984375 C 4.65625 -23.960938 5.710938 -25.691406 7.078125 -27.171875 C 8.441406 -28.648438 10.050781 -29.8125 11.90625 -30.65625 C 13.769531 -31.507812 15.828125 -31.9375 18.078125 -31.9375 C 20.566406 -31.9375 22.738281 -31.472656 24.59375 -30.546875 C 26.445312 -29.617188 27.992188 -28.414062 29.234375 -26.9375 C 30.484375 -25.457031 31.414062 -23.804688 32.03125 -21.984375 C 32.644531 -20.171875 32.953125 -18.351562 32.953125 -16.53125 C 32.953125 -15.507812 32.613281 -14.679688 31.9375 -14.046875 C 31.269531 -13.410156 30.484375 -13.09375 29.578125 -13.09375 L 9.953125 -13.09375 C 10.347656 -10.488281 11.351562 -8.515625 12.96875 -7.171875 C 14.59375 -5.828125 16.59375 -5.15625 18.96875 -5.15625 C 20.46875 -5.15625 21.816406 -5.398438 23.015625 -5.890625 C 24.222656 -6.390625 25.34375 -7.050781 26.375 -7.875 C 26.644531 -8.070312 26.910156 -8.226562 27.171875 -8.34375 C 27.429688 -8.46875 27.773438 -8.53125 28.203125 -8.53125 C 28.992188 -8.53125 29.664062 -8.253906 30.21875 -7.703125 C 30.78125 -7.148438 31.0625 -6.457031 31.0625 -5.625 C 31.0625 -5.195312 30.96875 -4.785156 30.78125 -4.390625 C 30.601562 -3.992188 30.378906 -3.675781 30.109375 -3.4375 C 28.679688 -2.175781 27.066406 -1.164062 25.265625 -0.40625 C 23.472656 0.34375 21.332031 0.71875 18.84375 0.71875 C 16.59375 0.71875 14.488281 0.320312 12.53125 -0.46875 C 10.570312 -1.257812 8.875 -2.363281 7.4375 -3.78125 C 6 -5.207031 4.863281 -6.914062 4.03125 -8.90625 C 3.195312 -10.90625 2.78125 -13.113281 2.78125 -15.53125 Z M 9.890625 -17.84375 L 25.953125 -17.84375 C 25.835938 -18.988281 25.582031 -20.0625 25.1875 -21.0625 C 24.789062 -22.070312 24.253906 -22.941406 23.578125 -23.671875 C 22.910156 -24.398438 22.113281 -24.984375 21.1875 -25.421875 C 20.257812 -25.859375 19.203125 -26.078125 18.015625 -26.078125 C 15.765625 -26.078125 13.925781 -25.328125 12.5 -23.828125 C 11.082031 -22.328125 10.210938 -20.332031 9.890625 -17.84375 Z M 9.890625 -17.84375 "/></g></g></g></svg>