<svg width="350" height="97" viewBox="0 0 350 97" fill="none" xmlns="http://www.w3.org/2000/svg">
<mask id="mask0_98_391" style="mask-type:luminance" maskUnits="userSpaceOnUse" x="89" y="65" width="112" height="33">
<path d="M89.5266 65.0091H200.193V97.0091H89.5266V65.0091Z" fill="white"/>
</mask>
<g mask="url(#mask0_98_391)">
<mask id="mask1_98_391" style="mask-type:luminance" maskUnits="userSpaceOnUse" x="89" y="15" width="112" height="113">
<path d="M200.891 74.306L142.547 127.572L89.287 69.2278L147.631 15.9622L200.891 74.306Z" fill="white"/>
</mask>
<g mask="url(#mask1_98_391)">
<mask id="mask2_98_391" style="mask-type:luminance" maskUnits="userSpaceOnUse" x="89" y="15" width="112" height="113">
<path d="M200.891 74.306L142.547 127.572L89.287 69.2278L147.631 15.9622L200.891 74.306Z" fill="white"/>
</mask>
<g mask="url(#mask2_98_391)">
<path d="M91.8443 66.5508C93.4537 65.082 95.9536 65.1966 97.4172 66.806C122.48 94.2539 165.209 96.2018 192.662 71.1393C194.266 69.6705 196.766 69.7851 198.235 71.3893C199.704 72.9987 199.589 75.4987 197.98 76.9674C190.474 83.8164 181.849 88.9987 172.344 92.358C163.157 95.6028 153.553 97.0195 143.787 96.5768C134.027 96.1341 124.584 93.8424 115.735 89.7799C106.573 85.5716 98.4536 79.6289 91.6047 72.1237C90.1255 70.5143 90.2401 68.0195 91.8443 66.5508Z" fill="#7291FF"/>
</g>
</g>
</g>
<path d="M38.7106 51.5208V0H49.3148V24.0208H49.4189C52.1793 21.2604 55.1168 19.875 58.2314 19.875C59.7418 19.875 61.2523 20.0781 62.7523 20.4792C64.2523 20.8854 65.6898 21.5104 67.0648 22.3542C68.4502 23.1875 69.57 24.375 70.4189 25.9167C71.2783 27.4479 71.7106 29.2292 71.7106 31.2708V51.5208H61.1064V34.1458C61.1064 32.5521 60.596 31.1563 59.5856 29.9583C58.57 28.75 57.2418 28.1458 55.6064 28.1458C54.0075 28.1458 52.5543 28.7708 51.2523 30.0208C49.9606 31.2604 49.3148 32.6354 49.3148 34.1458V51.5208H38.7106Z" fill="#314562"/>
<path d="M88.2112 47.875C84.7946 44.8333 83.0862 40.9375 83.0862 36.1875C83.0862 31.4271 84.8623 27.5156 88.4196 24.4583C91.9717 21.4062 96.3675 19.875 101.607 19.875C106.758 19.875 111.097 21.4167 114.628 24.5C118.17 27.5729 119.94 31.4688 119.94 36.1875C119.94 40.8958 118.211 44.7813 114.753 47.8333C111.295 50.8906 106.909 52.4167 101.607 52.4167C96.0915 52.4167 91.6279 50.9063 88.2112 47.875ZM96.4196 30.9792C95.0446 32.3281 94.3571 34.0625 94.3571 36.1875C94.3571 38.3021 95.0133 40.0312 96.3362 41.375C97.654 42.7083 99.3883 43.375 101.545 43.375C103.628 43.375 105.336 42.6979 106.67 41.3333C108.003 39.974 108.67 38.2604 108.67 36.1875C108.67 34.0625 107.982 32.3281 106.607 30.9792C105.232 29.6198 103.545 28.9375 101.545 28.9375C99.5029 28.9375 97.7946 29.6198 96.4196 30.9792Z" fill="#314562"/>
<path d="M163.545 24.5833C166.42 27.724 167.858 31.5729 167.858 36.125C167.858 40.6823 166.42 44.5365 163.545 47.6875C160.67 50.8438 157.014 52.4167 152.587 52.4167C148.504 52.4167 145.149 51.1406 142.524 48.5833V67.1042H131.92V20.7917H142.399V24.25H142.524C145.149 21.3333 148.504 19.875 152.587 19.875C157.014 19.875 160.67 21.4479 163.545 24.5833ZM154.524 41.3333C155.899 39.974 156.587 38.2396 156.587 36.125C156.587 34 155.925 32.2708 154.608 30.9375C153.3 29.6042 151.566 28.9375 149.399 28.9375C147.326 28.9375 145.618 29.6198 144.274 30.9792C142.941 32.3281 142.274 34.0417 142.274 36.125C142.274 38.2396 142.962 39.974 144.337 41.3333C145.722 42.6979 147.41 43.375 149.399 43.375C151.441 43.375 153.149 42.6979 154.524 41.3333Z" fill="#314562"/>
<path d="M15.5833 19.875C17.3333 19.875 19.0677 20.0781 20.7917 20.4792C22.5104 20.8854 23.7917 21.2865 24.625 21.6875L25.8958 22.2917L22.4167 29.2292C20.0104 27.9531 17.7344 27.3125 15.5833 27.3125C14.3854 27.3125 13.5417 27.4479 13.0417 27.7083C12.5417 27.9583 12.2917 28.4479 12.2917 29.1667C12.2917 29.3333 12.3021 29.5 12.3333 29.6667C12.375 29.8229 12.4583 29.9688 12.5833 30.1042C12.7083 30.2448 12.8177 30.3646 12.9167 30.4583C13.0104 30.5573 13.1771 30.6667 13.4167 30.7917C13.6667 30.9167 13.8594 31.0104 14 31.0625C14.1354 31.1198 14.3646 31.2083 14.6875 31.3333C15.0052 31.4479 15.2396 31.5365 15.3958 31.6042C15.5625 31.6615 15.8333 31.75 16.2083 31.875C16.5833 31.9896 16.875 32.0625 17.0833 32.1042C18.3177 32.4688 19.3958 32.8698 20.3125 33.3125C21.2292 33.7448 22.1927 34.3438 23.2083 35.1042C24.2344 35.8698 25.026 36.8281 25.5833 37.9792C26.1354 39.1354 26.4167 40.4531 26.4167 41.9375C26.4167 48.9271 21.5677 52.4167 11.875 52.4167C9.66667 52.4167 7.57292 52.0729 5.60417 51.3958C3.63021 50.7188 2.19792 50.0365 1.3125 49.3542L0 48.2917L4.3125 41.0417C4.63021 41.3229 5.04687 41.6458 5.5625 42.0208C6.08854 42.3958 7.03125 42.9167 8.39583 43.5833C9.75521 44.2396 10.9271 44.5625 11.9167 44.5625C14.125 44.5625 15.2292 43.8281 15.2292 42.3542C15.2292 41.6771 14.9427 41.1458 14.375 40.7708C13.8177 40.3854 12.8646 39.9531 11.5208 39.4792C10.1875 38.9948 9.14583 38.5573 8.39583 38.1667C6.47917 37.1667 4.95833 36.0417 3.83333 34.7917C2.71875 33.5312 2.16667 31.8542 2.16667 29.7708C2.16667 26.6615 3.375 24.2396 5.79167 22.5C8.20833 20.75 11.4687 19.875 15.5833 19.875Z" fill="#314562"/>
<path d="M182.739 47.875C179.322 44.8333 177.614 40.9375 177.614 36.1875C177.614 31.4271 179.39 27.5156 182.947 24.4583C186.499 21.4062 190.895 19.875 196.135 19.875C201.286 19.875 205.624 21.4167 209.155 24.5C212.697 27.5729 214.468 31.4688 214.468 36.1875C214.468 40.8958 212.739 44.7813 209.28 47.8333C205.822 50.8906 201.437 52.4167 196.135 52.4167C190.619 52.4167 186.155 50.9063 182.739 47.875ZM190.947 30.9792C189.572 32.3281 188.885 34.0625 188.885 36.1875C188.885 38.3021 189.541 40.0312 190.864 41.375C192.181 42.7083 193.916 43.375 196.072 43.375C198.155 43.375 199.864 42.6979 201.197 41.3333C202.53 39.974 203.197 38.2604 203.197 36.1875C203.197 34.0625 202.51 32.3281 201.135 30.9792C199.76 29.6198 198.072 28.9375 196.072 28.9375C194.03 28.9375 192.322 29.6198 190.947 30.9792Z" fill="#314562"/>
<path d="M226.448 51.5208V20.7917H237.052V25.2083H237.156C237.239 25.0573 237.37 24.8646 237.552 24.625C237.729 24.375 238.12 23.9531 238.719 23.3542C239.312 22.7604 239.953 22.224 240.635 21.75C241.312 21.2656 242.187 20.8333 243.26 20.4583C244.344 20.0729 245.448 19.875 246.573 19.875C247.724 19.875 248.854 20.0365 249.969 20.3542C251.094 20.6771 251.916 20.9948 252.448 21.3125L253.281 21.8125L248.844 30.7917C247.521 29.6667 245.687 29.1042 243.344 29.1042C242.062 29.1042 240.958 29.3906 240.031 29.9583C239.114 30.5156 238.469 31.1979 238.094 32C237.719 32.7917 237.448 33.4688 237.281 34.0208C237.125 34.5781 237.052 35.0156 237.052 35.3333V51.5208H226.448Z" fill="#314562"/>
<path d="M264.289 3.64585C265.539 2.41148 267.018 1.79169 268.726 1.79169C270.445 1.79169 271.924 2.41148 273.164 3.64585C274.398 4.88544 275.018 6.3646 275.018 8.08335C275.018 9.80731 274.398 11.2865 273.164 12.5209C271.924 13.7604 270.445 14.375 268.726 14.375C267.018 14.375 265.539 13.7604 264.289 12.5209C263.049 11.2865 262.434 9.80731 262.434 8.08335C262.434 6.3646 263.049 4.88544 264.289 3.64585ZM263.289 20.7917V51.5209H273.893V20.7917H263.289Z" fill="#314562"/>
<mask id="mask3_98_391" style="mask-type:luminance" maskUnits="userSpaceOnUse" x="278" y="2" width="72" height="72">
<path d="M278.323 2.19141H349.277V73.1497H278.323V2.19141Z" fill="white"/>
</mask>
<g mask="url(#mask3_98_391)">
<mask id="mask4_98_391" style="mask-type:luminance" maskUnits="userSpaceOnUse" x="278" y="2" width="72" height="72">
<path d="M313.803 2.19141C294.209 2.19141 278.323 18.0768 278.323 37.6706C278.323 57.2643 294.209 73.1497 313.803 73.1497C333.396 73.1497 349.277 57.2643 349.277 37.6706C349.277 18.0768 333.396 2.19141 313.803 2.19141Z" fill="white"/>
</mask>
<g mask="url(#mask4_98_391)">
<path d="M278.323 2.19141H349.277V73.1497H278.323V2.19141Z" fill="#7291FF"/>
</g>
</g>
<path d="M299.027 47.7292C296.152 44.5938 294.714 40.7448 294.714 36.1875C294.714 31.6354 296.152 27.7812 299.027 24.625C301.902 21.4583 305.558 19.875 310.006 19.875C314.074 19.875 317.428 21.1615 320.069 23.7292V20.7917H330.673V51.5208H320.173V48.0417H320.069C317.428 50.9583 314.074 52.4167 310.006 52.4167C305.558 52.4167 301.902 50.8542 299.027 47.7292ZM308.048 30.9792C306.673 32.3281 305.985 34.0625 305.985 36.1875C305.985 38.3021 306.641 40.0312 307.964 41.375C309.282 42.7083 311.016 43.375 313.173 43.375C315.256 43.375 316.964 42.6979 318.298 41.3333C319.631 39.974 320.298 38.2604 320.298 36.1875C320.298 34.0625 319.61 32.3281 318.235 30.9792C316.86 29.6198 315.173 28.9375 313.173 28.9375C311.131 28.9375 309.423 29.6198 308.048 30.9792Z" fill="white"/>
</svg>
