<svg xmlns="http://www.w3.org/2000/svg" width="48" height="48" id="mobile"><g transform="translate(0 -1004.362)"><circle cx="24" cy="1028.362" r="24" fill="#3a6c87"/><path fill="#2f4b6c" d="M23.814 1052.352a24 24 0 0 0 .186.01 24 24 0 0 0 1.697-.06 24 24 0 0 0 2.383-.29 24 24 0 0 0 2.34-.525 24 24 0 0 0 2.277-.756 24 24 0 0 0 2.19-.98 24 24 0 0 0 2.08-1.194 24 24 0 0 0 1.951-1.394 24 24 0 0 0 1.803-1.584 24 24 0 0 0 1.634-1.756 24 24 0 0 0 1.454-1.91 24 24 0 0 0 1.254-2.045 24 24 0 0 0 1.042-2.16 24 24 0 0 0 .823-2.254 24 24 0 0 0 .593-2.324 24 24 0 0 0 .36-2.372 24 24 0 0 0 .119-2.396 24 24 0 0 0-.043-1.22l-14.355-14.356-.014-.012c-.037-.036-.078-.066-.12-.098-.026-.02-.05-.045-.08-.064l-.003-.002a1.429 1.429 0 0 0-.518-.215 1.495 1.495 0 0 0-.295-.03h-16.14c-.793 0-1.432.617-1.432 1.382v29.23a1.352 1.352 0 0 0 .107.528c.027.06.062.117.096.173.012.02.022.042.035.061.027.04.06.075.09.111.025.03.045.061.072.088l.018.018 8.396 8.396z"/><path fill="#fff" d="M16.432 1012.365c-.793 0-1.432.616-1.432 1.38v29.233c0 .765.639 1.381 1.432 1.381h16.14c.793 0 1.43-.616 1.43-1.38v-29.233c0-.765-.637-1.381-1.43-1.381h-16.14zm1.064.996a.507.5 0 0 1 .506.5.507.5 0 0 1-.506.5.507.5 0 0 1-.506-.5.507.5 0 0 1 .506-.5zm4.506.014h4v.986h-4v-.986zm-5 1.986h15v24h-15v-24zm7.52 25a1.52 1.5 0 0 1 1.519 1.5 1.52 1.5 0 0 1-1.52 1.5 1.52 1.5 0 0 1-1.519-1.5 1.52 1.5 0 0 1 1.52-1.5z"/></g></svg>